<svg width="728" height="45" viewBox="0 0 728 45" fill="none" xmlns="http://www.w3.org/2000/svg">
<path d="M15 0.5H181.722L195.411 22.5L181.722 44.5H15C6.99188 44.5 0.5 38.0081 0.5 30V15C0.5 6.99187 6.99187 0.5 15 0.5Z" fill="#9FC53A" stroke="black"/>
<circle cx="26.5" cy="22.5" r="16" stroke="black"/>
<path d="M75.8964 19.1491C75.1933 19.1491 74.5665 19.0284 74.0161 18.7869C73.4692 18.5455 73.0342 18.2099 72.711 17.7802C72.3914 17.3469 72.2174 16.8445 72.189 16.2727H73.5313C73.5597 16.6243 73.6805 16.9279 73.8936 17.1836C74.1066 17.4357 74.3854 17.631 74.7298 17.7695C75.0743 17.908 75.4561 17.9773 75.8751 17.9773C76.3438 17.9773 76.7593 17.8956 77.1215 17.7322C77.4838 17.5689 77.7678 17.3416 77.9738 17.0504C78.1798 16.7592 78.2828 16.4219 78.2828 16.0384C78.2828 15.6371 78.1833 15.2837 77.9845 14.9783C77.7856 14.6694 77.4944 14.4279 77.1109 14.2539C76.7274 14.0799 76.2586 13.9929 75.7046 13.9929H74.8311V12.821H75.7046C76.1379 12.821 76.5178 12.7429 76.8445 12.5866C77.1748 12.4304 77.4323 12.2102 77.6169 11.9261C77.8051 11.642 77.8992 11.3082 77.8992 10.9247C77.8992 10.5554 77.8176 10.234 77.6542 9.96058C77.4909 9.68714 77.26 9.47408 76.9617 9.32138C76.667 9.16868 76.319 9.09233 75.9177 9.09233C75.5413 9.09233 75.1862 9.16158 74.8524 9.30007C74.5221 9.43501 74.2522 9.6321 74.0427 9.89134C73.8332 10.147 73.7195 10.456 73.7018 10.8182H72.4234C72.4447 10.2464 72.6169 9.74574 72.9401 9.31605C73.2632 8.88281 73.6858 8.54545 74.2078 8.30398C74.7334 8.0625 75.3105 7.94176 75.939 7.94176C76.6137 7.94176 77.1926 8.07848 77.6755 8.35192C78.1585 8.6218 78.5296 8.97869 78.7888 9.42259C79.048 9.86648 79.1776 10.3459 79.1776 10.8608C79.1776 11.4751 79.0161 11.9989 78.6929 12.4322C78.3733 12.8654 77.9383 13.1655 77.3879 13.3324V13.4176C78.0768 13.5312 78.6148 13.8242 79.0019 14.2965C79.3889 14.7653 79.5825 15.3459 79.5825 16.0384C79.5825 16.6314 79.4209 17.1641 79.0977 17.6364C78.7781 18.1051 78.3414 18.4744 77.7874 18.7443C77.2334 19.0142 76.6031 19.1491 75.8964 19.1491ZM84.1901 19.1918C83.6716 19.1918 83.2011 19.0941 82.7785 18.8988C82.3559 18.6999 82.0203 18.4141 81.7718 18.0412C81.5232 17.6648 81.3989 17.2102 81.3989 16.6776C81.3989 16.2088 81.4912 15.8288 81.6759 15.5376C81.8605 15.2429 82.1073 15.0121 82.4163 14.8452C82.7252 14.6783 83.0661 14.554 83.439 14.4723C83.8154 14.3871 84.1936 14.3196 84.5736 14.2699C85.0708 14.206 85.4738 14.158 85.7828 14.1261C86.0953 14.0906 86.3225 14.032 86.4646 13.9503C86.6102 13.8686 86.683 13.7266 86.683 13.5241V13.4815C86.683 12.956 86.5392 12.5476 86.2515 12.2564C85.9674 11.9652 85.536 11.8196 84.9571 11.8196C84.357 11.8196 83.8865 11.951 83.5455 12.2138C83.2046 12.4766 82.9649 12.7571 82.8264 13.0554L81.6333 12.6293C81.8463 12.1321 82.1304 11.745 82.4855 11.468C82.8442 11.1875 83.2348 10.9922 83.6574 10.8821C84.0835 10.7685 84.5026 10.7116 84.9145 10.7116C85.1773 10.7116 85.4791 10.7436 85.82 10.8075C86.1645 10.8679 86.4965 10.994 86.8161 11.1857C87.1393 11.3775 87.4074 11.6669 87.6205 12.054C87.8335 12.4411 87.9401 12.9595 87.9401 13.6094V19H86.683V17.892H86.6191C86.5338 18.0696 86.3918 18.2596 86.1929 18.462C85.9941 18.6644 85.7295 18.8366 85.3992 18.9787C85.069 19.1207 84.6659 19.1918 84.1901 19.1918ZM84.3818 18.0625C84.879 18.0625 85.298 17.9648 85.6389 17.7695C85.9834 17.5742 86.2426 17.3221 86.4166 17.0131C86.5942 16.7042 86.683 16.3793 86.683 16.0384V14.8878C86.6297 14.9517 86.5125 15.0103 86.3314 15.0636C86.1539 15.1133 85.9479 15.1577 85.7135 15.1967C85.4827 15.2322 85.2572 15.2642 85.037 15.2926C84.8204 15.3175 84.6446 15.3388 84.5097 15.3565C84.183 15.3991 83.8776 15.4684 83.5935 15.5643C83.3129 15.6566 83.0857 15.7969 82.9117 15.9851C82.7412 16.1697 82.656 16.4219 82.656 16.7415C82.656 17.1783 82.8176 17.5085 83.1407 17.7322C83.4674 17.9524 83.8811 18.0625 84.3818 18.0625ZM95.1564 19V11.9688H92.9831C92.4931 11.9688 92.1078 12.0824 91.8272 12.3097C91.5467 12.5369 91.4064 12.8494 91.4064 13.2472C91.4064 13.6378 91.5325 13.945 91.7846 14.1687C92.0403 14.3924 92.3901 14.5043 92.834 14.5043H95.476V15.6761H92.834C92.28 15.6761 91.8024 15.5785 91.4011 15.3832C90.9998 15.1879 90.6909 14.9091 90.4743 14.5469C90.2576 14.1811 90.1493 13.7479 90.1493 13.2472C90.1493 12.7429 90.263 12.3097 90.4902 11.9474C90.7175 11.5852 91.0424 11.3065 91.465 11.1112C91.8912 10.9158 92.3972 10.8182 92.9831 10.8182H96.3496V19H95.1564ZM89.7019 19L92.0243 14.9304H93.388L91.0655 19H89.7019ZM98.6574 19V10.8182H102.003C102.883 10.8182 103.583 11.017 104.101 11.4148C104.62 11.8125 104.879 12.3381 104.879 12.9915C104.879 13.4886 104.732 13.8739 104.437 14.1474C104.142 14.4173 103.764 14.6001 103.302 14.696C103.604 14.7386 103.897 14.8452 104.181 15.0156C104.469 15.1861 104.707 15.4205 104.895 15.7188C105.083 16.0135 105.177 16.3757 105.177 16.8054C105.177 17.2244 105.071 17.5991 104.858 17.9293C104.645 18.2596 104.339 18.5206 103.941 18.7124C103.544 18.9041 103.068 19 102.514 19H98.6574ZM99.8506 17.8494H102.514C102.947 17.8494 103.286 17.7464 103.531 17.5405C103.776 17.3345 103.899 17.054 103.899 16.6989C103.899 16.2763 103.776 15.9442 103.531 15.7028C103.286 15.4577 102.947 15.3352 102.514 15.3352H99.8506V17.8494ZM99.8506 14.2486H102.003C102.34 14.2486 102.629 14.2024 102.871 14.1101C103.112 14.0142 103.297 13.8793 103.425 13.7053C103.556 13.5277 103.622 13.3182 103.622 13.0767C103.622 12.7322 103.478 12.4624 103.19 12.267C102.903 12.0682 102.507 11.9688 102.003 11.9688H99.8506V14.2486ZM106.356 19V17.8281H106.654C106.899 17.8281 107.103 17.7802 107.267 17.6843C107.43 17.5849 107.561 17.4126 107.661 17.1676C107.764 16.919 107.842 16.5746 107.895 16.1342C107.952 15.6903 107.993 15.1257 108.018 14.4403L108.167 10.8182H113.621V19H112.364V11.9901H109.36L109.232 14.9091C109.204 15.5803 109.143 16.1715 109.051 16.6829C108.962 17.1907 108.826 17.6168 108.641 17.9613C108.46 18.3058 108.218 18.565 107.917 18.739C107.615 18.913 107.237 19 106.782 19H106.356ZM119.358 19.1705C118.57 19.1705 117.89 18.9964 117.318 18.6484C116.75 18.2969 116.311 17.8068 116.002 17.1783C115.697 16.5462 115.544 15.8111 115.544 14.973C115.544 14.1349 115.697 13.3963 116.002 12.7571C116.311 12.1143 116.741 11.6136 117.292 11.255C117.846 10.8928 118.492 10.7116 119.23 10.7116C119.657 10.7116 120.077 10.7827 120.493 10.9247C120.908 11.0668 121.287 11.2976 121.627 11.6172C121.968 11.9332 122.24 12.3523 122.442 12.8743C122.645 13.3963 122.746 14.0391 122.746 14.8026V15.3352H116.439V14.2486H121.468C121.468 13.7869 121.375 13.375 121.191 13.0128C121.01 12.6506 120.75 12.3647 120.413 12.1552C120.079 11.9457 119.685 11.8409 119.23 11.8409C118.73 11.8409 118.297 11.9652 117.931 12.2138C117.569 12.4588 117.29 12.7784 117.094 13.1726C116.899 13.5668 116.801 13.9893 116.801 14.4403V15.1648C116.801 15.7827 116.908 16.3065 117.121 16.7362C117.338 17.1623 117.638 17.4872 118.021 17.7109C118.405 17.9311 118.85 18.0412 119.358 18.0412C119.689 18.0412 119.987 17.995 120.253 17.9027C120.523 17.8068 120.756 17.6648 120.951 17.4766C121.146 17.2848 121.297 17.0469 121.404 16.7628L122.618 17.1037C122.49 17.5156 122.276 17.8778 121.974 18.1903C121.672 18.4993 121.299 18.7408 120.855 18.9148C120.411 19.0852 119.912 19.1705 119.358 19.1705ZM130.134 14.3338V15.5057H125.617V14.3338H130.134ZM125.915 10.8182V19H124.658V10.8182H125.915ZM131.093 10.8182V19H129.836V10.8182H131.093ZM134.646 17.1463L138.588 10.8182H140.037V19H138.779V12.6719L134.859 19H133.389V10.8182H134.646V17.1463ZM145.769 19.1705C144.981 19.1705 144.301 18.9964 143.729 18.6484C143.161 18.2969 142.723 17.8068 142.414 17.1783C142.108 16.5462 141.956 15.8111 141.956 14.973C141.956 14.1349 142.108 13.3963 142.414 12.7571C142.723 12.1143 143.152 11.6136 143.703 11.255C144.257 10.8928 144.903 10.7116 145.642 10.7116C146.068 10.7116 146.489 10.7827 146.904 10.9247C147.32 11.0668 147.698 11.2976 148.039 11.6172C148.38 11.9332 148.651 12.3523 148.854 12.8743C149.056 13.3963 149.157 14.0391 149.157 14.8026V15.3352H142.85V14.2486H147.879C147.879 13.7869 147.786 13.375 147.602 13.0128C147.421 12.6506 147.161 12.3647 146.824 12.1552C146.49 11.9457 146.096 11.8409 145.642 11.8409C145.141 11.8409 144.708 11.9652 144.342 12.2138C143.98 12.4588 143.701 12.7784 143.506 13.1726C143.31 13.5668 143.213 13.9893 143.213 14.4403V15.1648C143.213 15.7827 143.319 16.3065 143.532 16.7362C143.749 17.1623 144.049 17.4872 144.432 17.7109C144.816 17.9311 145.262 18.0412 145.769 18.0412C146.1 18.0412 146.398 17.995 146.664 17.9027C146.934 17.8068 147.167 17.6648 147.362 17.4766C147.557 17.2848 147.708 17.0469 147.815 16.7628L149.029 17.1037C148.902 17.5156 148.687 17.8778 148.385 18.1903C148.083 18.4993 147.71 18.7408 147.266 18.9148C146.822 19.0852 146.323 19.1705 145.769 19.1705ZM64.9527 34.9119H66.295C66.3234 35.2812 66.4903 35.5618 66.7957 35.7536C67.1047 35.9453 67.5059 36.0412 67.9996 36.0412C68.5038 36.0412 68.9353 35.9382 69.2939 35.7322C69.6526 35.5227 69.8319 35.1854 69.8319 34.7202C69.8319 34.4467 69.7645 34.2088 69.6295 34.0064C69.4946 33.8004 69.3046 33.6406 69.0596 33.527C68.8145 33.4134 68.5251 33.3565 68.1913 33.3565H66.7851V32.2273H68.1913C68.692 32.2273 69.0613 32.1136 69.2993 31.8864C69.5407 31.6591 69.6615 31.375 69.6615 31.0341C69.6615 30.6683 69.5319 30.3754 69.2726 30.1552C69.0134 29.9315 68.6459 29.8196 68.17 29.8196C67.6906 29.8196 67.2911 29.9279 66.9715 30.1445C66.6519 30.3576 66.4832 30.6328 66.4655 30.9702H65.1444C65.1586 30.5298 65.2936 30.141 65.5493 29.8036C65.805 29.4627 66.153 29.1964 66.5933 29.0046C67.0336 28.8093 67.5379 28.7116 68.1061 28.7116C68.6814 28.7116 69.1803 28.8129 69.6029 29.0153C70.029 29.2141 70.3575 29.4858 70.5883 29.8303C70.8227 30.1712 70.9399 30.5582 70.9399 30.9915C70.9399 31.4531 70.8103 31.826 70.551 32.1101C70.2918 32.3942 69.9669 32.5966 69.5763 32.7173V32.8026C69.8852 32.8239 70.1533 32.9233 70.3806 33.1009C70.6114 33.2749 70.7907 33.5039 70.9186 33.788C71.0464 34.0685 71.1104 34.3793 71.1104 34.7202C71.1104 35.2173 70.9772 35.6506 70.7108 36.0199C70.4445 36.3857 70.0787 36.6697 69.6135 36.8722C69.1483 37.071 68.6175 37.1705 68.0209 37.1705C67.442 37.1705 66.9236 37.0763 66.4655 36.8881C66.0074 36.6964 65.6434 36.4318 65.3735 36.0945C65.1072 35.7536 64.9669 35.3594 64.9527 34.9119ZM75.2838 37.1918C74.7654 37.1918 74.2948 37.0941 73.8722 36.8988C73.4497 36.6999 73.1141 36.4141 72.8655 36.0412C72.6169 35.6648 72.4926 35.2102 72.4926 34.6776C72.4926 34.2088 72.585 33.8288 72.7696 33.5376C72.9543 33.2429 73.2011 33.0121 73.51 32.8452C73.819 32.6783 74.1599 32.554 74.5328 32.4723C74.9092 32.3871 75.2874 32.3196 75.6673 32.2699C76.1645 32.206 76.5676 32.158 76.8765 32.1261C77.189 32.0906 77.4163 32.032 77.5583 31.9503C77.7039 31.8686 77.7767 31.7266 77.7767 31.5241V31.4815C77.7767 30.956 77.6329 30.5476 77.3453 30.2564C77.0612 29.9652 76.6297 29.8196 76.0509 29.8196C75.4507 29.8196 74.9802 29.951 74.6393 30.2138C74.2984 30.4766 74.0587 30.7571 73.9202 31.0554L72.727 30.6293C72.9401 30.1321 73.2242 29.745 73.5793 29.468C73.9379 29.1875 74.3286 28.9922 74.7512 28.8821C75.1773 28.7685 75.5963 28.7116 76.0083 28.7116C76.271 28.7116 76.5729 28.7436 76.9138 28.8075C77.2583 28.8679 77.5903 28.994 77.9099 29.1857C78.233 29.3775 78.5012 29.6669 78.7142 30.054C78.9273 30.4411 79.0338 30.9595 79.0338 31.6094V37H77.7767V35.892H77.7128C77.6276 36.0696 77.4855 36.2596 77.2867 36.462C77.0878 36.6644 76.8232 36.8366 76.493 36.9787C76.1627 37.1207 75.7597 37.1918 75.2838 37.1918ZM75.4756 36.0625C75.9727 36.0625 76.3918 35.9648 76.7327 35.7695C77.0771 35.5742 77.3364 35.3221 77.5104 35.0131C77.6879 34.7042 77.7767 34.3793 77.7767 34.0384V32.8878C77.7235 32.9517 77.6063 33.0103 77.4252 33.0636C77.2476 33.1133 77.0416 33.1577 76.8073 33.1967C76.5764 33.2322 76.3509 33.2642 76.1308 33.2926C75.9142 33.3175 75.7384 33.3388 75.6034 33.3565C75.2767 33.3991 74.9713 33.4684 74.6872 33.5643C74.4067 33.6566 74.1794 33.7969 74.0054 33.9851C73.835 34.1697 73.7497 34.4219 73.7497 34.7415C73.7497 35.1783 73.9113 35.5085 74.2345 35.7322C74.5612 35.9524 74.9749 36.0625 75.4756 36.0625ZM81.3283 37V28.8182H87.763V37H86.5059V29.9901H82.5854V37H81.3283ZM93.3826 37.1705C92.644 37.1705 91.9959 36.9947 91.4384 36.6431C90.8844 36.2915 90.4512 35.7997 90.1387 35.1676C89.8297 34.5355 89.6752 33.7969 89.6752 32.9517C89.6752 32.0994 89.8297 31.3555 90.1387 30.7198C90.4512 30.0842 90.8844 29.5906 91.4384 29.239C91.9959 28.8874 92.644 28.7116 93.3826 28.7116C94.1213 28.7116 94.7676 28.8874 95.3216 29.239C95.8791 29.5906 96.3123 30.0842 96.6213 30.7198C96.9338 31.3555 97.09 32.0994 97.09 32.9517C97.09 33.7969 96.9338 34.5355 96.6213 35.1676C96.3123 35.7997 95.8791 36.2915 95.3216 36.6431C94.7676 36.9947 94.1213 37.1705 93.3826 37.1705ZM93.3826 36.0412C93.9437 36.0412 94.4054 35.8974 94.7676 35.6097C95.1298 35.3221 95.3979 34.9439 95.5719 34.4751C95.7459 34.0064 95.8329 33.4986 95.8329 32.9517C95.8329 32.4048 95.7459 31.8952 95.5719 31.4229C95.3979 30.9506 95.1298 30.5689 94.7676 30.2777C94.4054 29.9865 93.9437 29.8409 93.3826 29.8409C92.8216 29.8409 92.3599 29.9865 91.9977 30.2777C91.6355 30.5689 91.3674 30.9506 91.1934 31.4229C91.0194 31.8952 90.9324 32.4048 90.9324 32.9517C90.9324 33.4986 91.0194 34.0064 91.1934 34.4751C91.3674 34.9439 91.6355 35.3221 91.9977 35.6097C92.3599 35.8974 92.8216 36.0412 93.3826 36.0412ZM98.2845 37V35.8281H98.5828C98.8279 35.8281 99.032 35.7802 99.1954 35.6843C99.3588 35.5849 99.4901 35.4126 99.5896 35.1676C99.6926 34.919 99.7707 34.5746 99.824 34.1342C99.8808 33.6903 99.9216 33.1257 99.9465 32.4403L100.096 28.8182H105.55V37H104.293V29.9901H101.289L101.161 32.9091C101.133 33.5803 101.072 34.1715 100.98 34.6829C100.891 35.1907 100.754 35.6168 100.57 35.9613C100.389 36.3058 100.147 36.565 99.8453 36.739C99.5434 36.913 99.1652 37 98.7107 37H98.2845ZM113.332 32.3338V33.5057H108.815V32.3338H113.332ZM109.114 28.8182V37H107.857V28.8182H109.114ZM114.291 28.8182V37H113.034V28.8182H114.291ZM121.509 37V29.9688H119.336C118.846 29.9688 118.46 30.0824 118.18 30.3097C117.899 30.5369 117.759 30.8494 117.759 31.2472C117.759 31.6378 117.885 31.945 118.137 32.1687C118.393 32.3924 118.743 32.5043 119.187 32.5043H121.829V33.6761H119.187C118.633 33.6761 118.155 33.5785 117.754 33.3832C117.352 33.1879 117.043 32.9091 116.827 32.5469C116.61 32.1811 116.502 31.7479 116.502 31.2472C116.502 30.7429 116.616 30.3097 116.843 29.9474C117.07 29.5852 117.395 29.3065 117.818 29.1112C118.244 28.9158 118.75 28.8182 119.336 28.8182H122.702V37H121.509ZM116.054 37L118.377 32.9304H119.741L117.418 37H116.054ZM128.44 37.1705C127.652 37.1705 126.972 36.9964 126.4 36.6484C125.832 36.2969 125.393 35.8068 125.085 35.1783C124.779 34.5462 124.626 33.8111 124.626 32.973C124.626 32.1349 124.779 31.3963 125.085 30.7571C125.393 30.1143 125.823 29.6136 126.374 29.255C126.928 28.8928 127.574 28.7116 128.312 28.7116C128.739 28.7116 129.159 28.7827 129.575 28.9247C129.99 29.0668 130.369 29.2976 130.71 29.6172C131.05 29.9332 131.322 30.3523 131.525 30.8743C131.727 31.3963 131.828 32.0391 131.828 32.8026V33.3352H125.521V32.2486H130.55C130.55 31.7869 130.457 31.375 130.273 31.0128C130.092 30.6506 129.832 30.3647 129.495 30.1552C129.161 29.9457 128.767 29.8409 128.312 29.8409C127.812 29.8409 127.379 29.9652 127.013 30.2138C126.651 30.4588 126.372 30.7784 126.176 31.1726C125.981 31.5668 125.884 31.9893 125.884 32.4403V33.1648C125.884 33.7827 125.99 34.3065 126.203 34.7362C126.42 35.1623 126.72 35.4872 127.103 35.7109C127.487 35.9311 127.933 36.0412 128.44 36.0412C128.771 36.0412 129.069 35.995 129.335 35.9027C129.605 35.8068 129.838 35.6648 130.033 35.4766C130.228 35.2848 130.379 35.0469 130.486 34.7628L131.7 35.1037C131.572 35.5156 131.358 35.8778 131.056 36.1903C130.754 36.4993 130.381 36.7408 129.937 36.9148C129.493 37.0852 128.994 37.1705 128.44 37.1705ZM132.979 29.9901V28.8182H139.626V29.9901H136.942V37H135.685V29.9901H132.979ZM144.359 37.1705C143.592 37.1705 142.932 36.9893 142.378 36.6271C141.824 36.2649 141.398 35.766 141.099 35.1303C140.801 34.4947 140.652 33.7685 140.652 32.9517C140.652 32.1207 140.805 31.3874 141.11 30.7518C141.419 30.1126 141.849 29.6136 142.399 29.255C142.953 28.8928 143.599 28.7116 144.338 28.7116C144.913 28.7116 145.432 28.8182 145.893 29.0312C146.355 29.2443 146.733 29.5426 147.028 29.9261C147.323 30.3097 147.506 30.7571 147.577 31.2685H146.319C146.224 30.8956 146.01 30.5653 145.68 30.2777C145.354 29.9865 144.913 29.8409 144.359 29.8409C143.869 29.8409 143.439 29.9687 143.07 30.2244C142.704 30.4766 142.419 30.8335 142.213 31.2951C142.01 31.7532 141.909 32.2912 141.909 32.9091C141.909 33.5412 142.008 34.0916 142.207 34.5604C142.41 35.0291 142.694 35.3931 143.059 35.6523C143.429 35.9116 143.862 36.0412 144.359 36.0412C144.686 36.0412 144.982 35.9844 145.249 35.8707C145.515 35.7571 145.741 35.5938 145.925 35.3807C146.11 35.1676 146.241 34.9119 146.319 34.6136H147.577C147.506 35.0966 147.33 35.5316 147.049 35.9187C146.772 36.3022 146.405 36.6076 145.947 36.8349C145.492 37.0586 144.963 37.1705 144.359 37.1705ZM154.336 37V29.9688H152.163C151.673 29.9688 151.287 30.0824 151.007 30.3097C150.726 30.5369 150.586 30.8494 150.586 31.2472C150.586 31.6378 150.712 31.945 150.964 32.1687C151.22 32.3924 151.57 32.5043 152.014 32.5043H154.656V33.6761H152.014C151.46 33.6761 150.982 33.5785 150.581 33.3832C150.18 33.1879 149.871 32.9091 149.654 32.5469C149.437 32.1811 149.329 31.7479 149.329 31.2472C149.329 30.7429 149.443 30.3097 149.67 29.9474C149.897 29.5852 150.222 29.3065 150.645 29.1112C151.071 28.9158 151.577 28.8182 152.163 28.8182H155.529V37H154.336ZM148.882 37L151.204 32.9304H152.568L150.245 37H148.882Z" fill="black"/>
<path d="M18 22L26 30L35 15" stroke="black"/>
<path d="M356.711 44.5H181.9L195.425 22.7642L195.589 22.5L195.425 22.2358L181.9 0.5H356.711L369.423 22.5L356.711 44.5Z" fill="#9FC53A" stroke="black"/>
<path d="M237 22.5C237 31.3365 229.837 38.5 221 38.5C212.163 38.5 205 31.3365 205 22.5C205 13.6634 212.163 6.49999 221 6.49999C229.837 6.49999 237 13.6634 237 22.5Z" stroke="black"/>
<path d="M253.896 19.1491C253.193 19.1491 252.566 19.0284 252.016 18.7869C251.469 18.5455 251.034 18.2099 250.711 17.7802C250.391 17.3469 250.217 16.8445 250.189 16.2727H251.531C251.56 16.6243 251.68 16.9279 251.894 17.1836C252.107 17.4357 252.385 17.631 252.73 17.7695C253.074 17.908 253.456 17.9773 253.875 17.9773C254.344 17.9773 254.759 17.8956 255.122 17.7322C255.484 17.5689 255.768 17.3416 255.974 17.0504C256.18 16.7592 256.283 16.4219 256.283 16.0384C256.283 15.6371 256.183 15.2837 255.984 14.9783C255.786 14.6694 255.494 14.4279 255.111 14.2539C254.727 14.0799 254.259 13.9929 253.705 13.9929H252.831V12.821H253.705C254.138 12.821 254.518 12.7429 254.845 12.5866C255.175 12.4304 255.432 12.2102 255.617 11.9261C255.805 11.642 255.899 11.3082 255.899 10.9247C255.899 10.5554 255.818 10.234 255.654 9.96058C255.491 9.68714 255.26 9.47408 254.962 9.32138C254.667 9.16868 254.319 9.09233 253.918 9.09233C253.541 9.09233 253.186 9.16158 252.852 9.30007C252.522 9.43501 252.252 9.6321 252.043 9.89134C251.833 10.147 251.72 10.456 251.702 10.8182H250.423C250.445 10.2464 250.617 9.74574 250.94 9.31605C251.263 8.88281 251.686 8.54545 252.208 8.30398C252.733 8.0625 253.31 7.94176 253.939 7.94176C254.614 7.94176 255.193 8.07848 255.676 8.35192C256.158 8.6218 256.53 8.97869 256.789 9.42259C257.048 9.86648 257.178 10.3459 257.178 10.8608C257.178 11.4751 257.016 11.9989 256.693 12.4322C256.373 12.8654 255.938 13.1655 255.388 13.3324V13.4176C256.077 13.5312 256.615 13.8242 257.002 14.2965C257.389 14.7653 257.582 15.3459 257.582 16.0384C257.582 16.6314 257.421 17.1641 257.098 17.6364C256.778 18.1051 256.341 18.4744 255.787 18.7443C255.233 19.0142 254.603 19.1491 253.896 19.1491ZM262.19 19.1918C261.672 19.1918 261.201 19.0941 260.778 18.8988C260.356 18.6999 260.02 18.4141 259.772 18.0412C259.523 17.6648 259.399 17.2102 259.399 16.6776C259.399 16.2088 259.491 15.8288 259.676 15.5376C259.861 15.2429 260.107 15.0121 260.416 14.8452C260.725 14.6783 261.066 14.554 261.439 14.4723C261.815 14.3871 262.194 14.3196 262.574 14.2699C263.071 14.206 263.474 14.158 263.783 14.1261C264.095 14.0906 264.323 14.032 264.465 13.9503C264.61 13.8686 264.683 13.7266 264.683 13.5241V13.4815C264.683 12.956 264.539 12.5476 264.252 12.2564C263.967 11.9652 263.536 11.8196 262.957 11.8196C262.357 11.8196 261.886 11.951 261.546 12.2138C261.205 12.4766 260.965 12.7571 260.826 13.0554L259.633 12.6293C259.846 12.1321 260.13 11.745 260.486 11.468C260.844 11.1875 261.235 10.9922 261.657 10.8821C262.084 10.7685 262.503 10.7116 262.915 10.7116C263.177 10.7116 263.479 10.7436 263.82 10.8075C264.165 10.8679 264.497 10.994 264.816 11.1857C265.139 11.3775 265.407 11.6669 265.62 12.054C265.834 12.4411 265.94 12.9595 265.94 13.6094V19H264.683V17.892H264.619C264.534 18.0696 264.392 18.2596 264.193 18.462C263.994 18.6644 263.729 18.8366 263.399 18.9787C263.069 19.1207 262.666 19.1918 262.19 19.1918ZM262.382 18.0625C262.879 18.0625 263.298 17.9648 263.639 17.7695C263.983 17.5742 264.243 17.3221 264.417 17.0131C264.594 16.7042 264.683 16.3793 264.683 16.0384V14.8878C264.63 14.9517 264.513 15.0103 264.331 15.0636C264.154 15.1133 263.948 15.1577 263.714 15.1967C263.483 15.2322 263.257 15.2642 263.037 15.2926C262.82 15.3175 262.645 15.3388 262.51 15.3565C262.183 15.3991 261.878 15.4684 261.593 15.5643C261.313 15.6566 261.086 15.7969 260.912 15.9851C260.741 16.1697 260.656 16.4219 260.656 16.7415C260.656 17.1783 260.818 17.5085 261.141 17.7322C261.467 17.9524 261.881 18.0625 262.382 18.0625ZM273.156 19V11.9688H270.983C270.493 11.9688 270.108 12.0824 269.827 12.3097C269.547 12.5369 269.406 12.8494 269.406 13.2472C269.406 13.6378 269.532 13.945 269.785 14.1687C270.04 14.3924 270.39 14.5043 270.834 14.5043H273.476V15.6761H270.834C270.28 15.6761 269.802 15.5785 269.401 15.3832C269 15.1879 268.691 14.9091 268.474 14.5469C268.258 14.1811 268.149 13.7479 268.149 13.2472C268.149 12.7429 268.263 12.3097 268.49 11.9474C268.718 11.5852 269.042 11.3065 269.465 11.1112C269.891 10.9158 270.397 10.8182 270.983 10.8182H274.35V19H273.156ZM267.702 19L270.024 14.9304H271.388L269.066 19H267.702ZM276.657 19V10.8182H280.003C280.883 10.8182 281.583 11.017 282.101 11.4148C282.62 11.8125 282.879 12.3381 282.879 12.9915C282.879 13.4886 282.732 13.8739 282.437 14.1474C282.142 14.4173 281.764 14.6001 281.302 14.696C281.604 14.7386 281.897 14.8452 282.181 15.0156C282.469 15.1861 282.707 15.4205 282.895 15.7188C283.083 16.0135 283.177 16.3757 283.177 16.8054C283.177 17.2244 283.071 17.5991 282.858 17.9293C282.645 18.2596 282.339 18.5206 281.941 18.7124C281.544 18.9041 281.068 19 280.514 19H276.657ZM277.851 17.8494H280.514C280.947 17.8494 281.286 17.7464 281.531 17.5405C281.776 17.3345 281.899 17.054 281.899 16.6989C281.899 16.2763 281.776 15.9442 281.531 15.7028C281.286 15.4577 280.947 15.3352 280.514 15.3352H277.851V17.8494ZM277.851 14.2486H280.003C280.34 14.2486 280.629 14.2024 280.871 14.1101C281.112 14.0142 281.297 13.8793 281.425 13.7053C281.556 13.5277 281.622 13.3182 281.622 13.0767C281.622 12.7322 281.478 12.4624 281.19 12.267C280.903 12.0682 280.507 11.9688 280.003 11.9688H277.851V14.2486ZM284.356 19V17.8281H284.654C284.899 17.8281 285.103 17.7802 285.267 17.6843C285.43 17.5849 285.561 17.4126 285.661 17.1676C285.764 16.919 285.842 16.5746 285.895 16.1342C285.952 15.6903 285.993 15.1257 286.018 14.4403L286.167 10.8182H291.621V19H290.364V11.9901H287.36L287.232 14.9091C287.204 15.5803 287.143 16.1715 287.051 16.6829C286.962 17.1907 286.826 17.6168 286.641 17.9613C286.46 18.3058 286.218 18.565 285.917 18.739C285.615 18.913 285.237 19 284.782 19H284.356ZM297.358 19.1705C296.57 19.1705 295.89 18.9964 295.318 18.6484C294.75 18.2969 294.311 17.8068 294.002 17.1783C293.697 16.5462 293.544 15.8111 293.544 14.973C293.544 14.1349 293.697 13.3963 294.002 12.7571C294.311 12.1143 294.741 11.6136 295.292 11.255C295.846 10.8928 296.492 10.7116 297.23 10.7116C297.657 10.7116 298.077 10.7827 298.493 10.9247C298.908 11.0668 299.287 11.2976 299.627 11.6172C299.968 11.9332 300.24 12.3523 300.442 12.8743C300.645 13.3963 300.746 14.0391 300.746 14.8026V15.3352H294.439V14.2486H299.468C299.468 13.7869 299.375 13.375 299.191 13.0128C299.01 12.6506 298.75 12.3647 298.413 12.1552C298.079 11.9457 297.685 11.8409 297.23 11.8409C296.73 11.8409 296.297 11.9652 295.931 12.2138C295.569 12.4588 295.29 12.7784 295.094 13.1726C294.899 13.5668 294.801 13.9893 294.801 14.4403V15.1648C294.801 15.7827 294.908 16.3065 295.121 16.7362C295.338 17.1623 295.638 17.4872 296.021 17.7109C296.405 17.9311 296.85 18.0412 297.358 18.0412C297.689 18.0412 297.987 17.995 298.253 17.9027C298.523 17.8068 298.756 17.6648 298.951 17.4766C299.146 17.2848 299.297 17.0469 299.404 16.7628L300.618 17.1037C300.49 17.5156 300.276 17.8778 299.974 18.1903C299.672 18.4993 299.299 18.7408 298.855 18.9148C298.411 19.0852 297.912 19.1705 297.358 19.1705ZM308.134 14.3338V15.5057H303.617V14.3338H308.134ZM303.915 10.8182V19H302.658V10.8182H303.915ZM309.093 10.8182V19H307.836V10.8182H309.093ZM312.646 17.1463L316.588 10.8182H318.037V19H316.779V12.6719L312.859 19H311.389V10.8182H312.646V17.1463ZM323.769 19.1705C322.981 19.1705 322.301 18.9964 321.729 18.6484C321.161 18.2969 320.723 17.8068 320.414 17.1783C320.108 16.5462 319.956 15.8111 319.956 14.973C319.956 14.1349 320.108 13.3963 320.414 12.7571C320.723 12.1143 321.152 11.6136 321.703 11.255C322.257 10.8928 322.903 10.7116 323.642 10.7116C324.068 10.7116 324.489 10.7827 324.904 10.9247C325.32 11.0668 325.698 11.2976 326.039 11.6172C326.38 11.9332 326.651 12.3523 326.854 12.8743C327.056 13.3963 327.157 14.0391 327.157 14.8026V15.3352H320.85V14.2486H325.879C325.879 13.7869 325.786 13.375 325.602 13.0128C325.421 12.6506 325.161 12.3647 324.824 12.1552C324.49 11.9457 324.096 11.8409 323.642 11.8409C323.141 11.8409 322.708 11.9652 322.342 12.2138C321.98 12.4588 321.701 12.7784 321.506 13.1726C321.31 13.5668 321.213 13.9893 321.213 14.4403V15.1648C321.213 15.7827 321.319 16.3065 321.532 16.7362C321.749 17.1623 322.049 17.4872 322.432 17.7109C322.816 17.9311 323.262 18.0412 323.769 18.0412C324.1 18.0412 324.398 17.995 324.664 17.9027C324.934 17.8068 325.167 17.6648 325.362 17.4766C325.557 17.2848 325.708 17.0469 325.815 16.7628L327.029 17.1037C326.902 17.5156 326.687 17.8778 326.385 18.1903C326.083 18.4993 325.71 18.7408 325.266 18.9148C324.822 19.0852 324.323 19.1705 323.769 19.1705ZM263.064 37V28.8182H269.498V37H268.241V29.9901H264.321V37H263.064ZM275.118 37.1705C274.379 37.1705 273.731 36.9947 273.174 36.6431C272.62 36.2915 272.187 35.7997 271.874 35.1676C271.565 34.5355 271.411 33.7969 271.411 32.9517C271.411 32.0994 271.565 31.3555 271.874 30.7198C272.187 30.0842 272.62 29.5906 273.174 29.239C273.731 28.8874 274.379 28.7116 275.118 28.7116C275.857 28.7116 276.503 28.8874 277.057 29.239C277.614 29.5906 278.048 30.0842 278.357 30.7198C278.669 31.3555 278.825 32.0994 278.825 32.9517C278.825 33.7969 278.669 34.5355 278.357 35.1676C278.048 35.7997 277.614 36.2915 277.057 36.6431C276.503 36.9947 275.857 37.1705 275.118 37.1705ZM275.118 36.0412C275.679 36.0412 276.141 35.8974 276.503 35.6097C276.865 35.3221 277.133 34.9439 277.307 34.4751C277.481 34.0064 277.568 33.4986 277.568 32.9517C277.568 32.4048 277.481 31.8952 277.307 31.4229C277.133 30.9506 276.865 30.5689 276.503 30.2777C276.141 29.9865 275.679 29.8409 275.118 29.8409C274.557 29.8409 274.095 29.9865 273.733 30.2777C273.371 30.5689 273.103 30.9506 272.929 31.4229C272.755 31.8952 272.668 32.4048 272.668 32.9517C272.668 33.4986 272.755 34.0064 272.929 34.4751C273.103 34.9439 273.371 35.3221 273.733 35.6097C274.095 35.8974 274.557 36.0412 275.118 36.0412ZM279.871 39.3438V35.8281H280.553C280.719 35.6541 280.863 35.4659 280.984 35.2635C281.105 35.0611 281.21 34.8214 281.298 34.5444C281.391 34.2638 281.469 33.9229 281.533 33.5217C281.597 33.1168 281.653 32.6286 281.703 32.0568L281.98 28.8182H287.179V35.8281H288.436V39.3438H287.179V37H281.128V39.3438H279.871ZM281.98 35.8281H285.922V29.9901H283.152L282.939 32.0568C282.85 32.9126 282.74 33.6602 282.609 34.2994C282.477 34.9386 282.268 35.4482 281.98 35.8281ZM292.512 37.1918C291.994 37.1918 291.523 37.0941 291.101 36.8988C290.678 36.6999 290.343 36.4141 290.094 36.0412C289.845 35.6648 289.721 35.2102 289.721 34.6776C289.721 34.2088 289.813 33.8288 289.998 33.5376C290.183 33.2429 290.43 33.0121 290.739 32.8452C291.047 32.6783 291.388 32.554 291.761 32.4723C292.138 32.3871 292.516 32.3196 292.896 32.2699C293.393 32.206 293.796 32.158 294.105 32.1261C294.418 32.0906 294.645 32.032 294.787 31.9503C294.932 31.8686 295.005 31.7266 295.005 31.5241V31.4815C295.005 30.956 294.861 30.5476 294.574 30.2564C294.29 29.9652 293.858 29.8196 293.279 29.8196C292.679 29.8196 292.209 29.951 291.868 30.2138C291.527 30.4766 291.287 30.7571 291.149 31.0554L289.956 30.6293C290.169 30.1321 290.453 29.745 290.808 29.468C291.166 29.1875 291.557 28.9922 291.98 28.8821C292.406 28.7685 292.825 28.7116 293.237 28.7116C293.5 28.7116 293.801 28.7436 294.142 28.8075C294.487 28.8679 294.819 28.994 295.138 29.1857C295.462 29.3775 295.73 29.6669 295.943 30.054C296.156 30.4411 296.262 30.9595 296.262 31.6094V37H295.005V35.892H294.941C294.856 36.0696 294.714 36.2596 294.515 36.462C294.316 36.6644 294.052 36.8366 293.722 36.9787C293.391 37.1207 292.988 37.1918 292.512 37.1918ZM292.704 36.0625C293.201 36.0625 293.62 35.9648 293.961 35.7695C294.306 35.5742 294.565 35.3221 294.739 35.0131C294.916 34.7042 295.005 34.3793 295.005 34.0384V32.8878C294.952 32.9517 294.835 33.0103 294.654 33.0636C294.476 33.1133 294.27 33.1577 294.036 33.1967C293.805 33.2322 293.579 33.2642 293.359 33.2926C293.143 33.3175 292.967 33.3388 292.832 33.3565C292.505 33.3991 292.2 33.4684 291.916 33.5643C291.635 33.6566 291.408 33.7969 291.234 33.9851C291.063 34.1697 290.978 34.4219 290.978 34.7415C290.978 35.1783 291.14 35.5085 291.463 35.7322C291.79 35.9524 292.203 36.0625 292.704 36.0625ZM304.033 32.3338V33.5057H299.516V32.3338H304.033ZM299.814 28.8182V37H298.557V28.8182H299.814ZM304.991 28.8182V37H303.734V28.8182H304.991ZM310.611 37.1705C309.873 37.1705 309.224 36.9947 308.667 36.6431C308.113 36.2915 307.68 35.7997 307.367 35.1676C307.058 34.5355 306.904 33.7969 306.904 32.9517C306.904 32.0994 307.058 31.3555 307.367 30.7198C307.68 30.0842 308.113 29.5906 308.667 29.239C309.224 28.8874 309.873 28.7116 310.611 28.7116C311.35 28.7116 311.996 28.8874 312.55 29.239C313.108 29.5906 313.541 30.0842 313.85 30.7198C314.162 31.3555 314.319 32.0994 314.319 32.9517C314.319 33.7969 314.162 34.5355 313.85 35.1676C313.541 35.7997 313.108 36.2915 312.55 36.6431C311.996 36.9947 311.35 37.1705 310.611 37.1705ZM310.611 36.0412C311.172 36.0412 311.634 35.8974 311.996 35.6097C312.358 35.3221 312.626 34.9439 312.8 34.4751C312.974 34.0064 313.061 33.4986 313.061 32.9517C313.061 32.4048 312.974 31.8952 312.8 31.4229C312.626 30.9506 312.358 30.5689 311.996 30.2777C311.634 29.9865 311.172 29.8409 310.611 29.8409C310.05 29.8409 309.588 29.9865 309.226 30.2777C308.864 30.5689 308.596 30.9506 308.422 31.4229C308.248 31.8952 308.161 32.4048 308.161 32.9517C308.161 33.4986 308.248 34.0064 308.422 34.4751C308.596 34.9439 308.864 35.3221 309.226 35.6097C309.588 35.8974 310.05 36.0412 310.611 36.0412Z" fill="black"/>
<path d="M212 22L220 30L229 15" stroke="black"/>
<path d="M534.711 44.5H356.866L369.433 22.7501L369.577 22.5L369.433 22.2499L356.866 0.5H534.711L547.423 22.5L534.711 44.5Z" fill="white" stroke="black"/>
<circle cx="393.5" cy="22.5" r="16" stroke="black"/>
<path d="M431.896 19.1491C431.193 19.1491 430.566 19.0284 430.016 18.7869C429.469 18.5455 429.034 18.2099 428.711 17.7802C428.391 17.3469 428.217 16.8445 428.189 16.2727H429.531C429.56 16.6243 429.68 16.9279 429.894 17.1836C430.107 17.4357 430.385 17.631 430.73 17.7695C431.074 17.908 431.456 17.9773 431.875 17.9773C432.344 17.9773 432.759 17.8956 433.122 17.7322C433.484 17.5689 433.768 17.3416 433.974 17.0504C434.18 16.7592 434.283 16.4219 434.283 16.0384C434.283 15.6371 434.183 15.2837 433.984 14.9783C433.786 14.6694 433.494 14.4279 433.111 14.2539C432.727 14.0799 432.259 13.9929 431.705 13.9929H430.831V12.821H431.705C432.138 12.821 432.518 12.7429 432.845 12.5866C433.175 12.4304 433.432 12.2102 433.617 11.9261C433.805 11.642 433.899 11.3082 433.899 10.9247C433.899 10.5554 433.818 10.234 433.654 9.96058C433.491 9.68714 433.26 9.47408 432.962 9.32138C432.667 9.16868 432.319 9.09233 431.918 9.09233C431.541 9.09233 431.186 9.16158 430.852 9.30007C430.522 9.43501 430.252 9.6321 430.043 9.89134C429.833 10.147 429.72 10.456 429.702 10.8182H428.423C428.445 10.2464 428.617 9.74574 428.94 9.31605C429.263 8.88281 429.686 8.54545 430.208 8.30398C430.733 8.0625 431.31 7.94176 431.939 7.94176C432.614 7.94176 433.193 8.07848 433.676 8.35192C434.158 8.6218 434.53 8.97869 434.789 9.42259C435.048 9.86648 435.178 10.3459 435.178 10.8608C435.178 11.4751 435.016 11.9989 434.693 12.4322C434.373 12.8654 433.938 13.1655 433.388 13.3324V13.4176C434.077 13.5312 434.615 13.8242 435.002 14.2965C435.389 14.7653 435.582 15.3459 435.582 16.0384C435.582 16.6314 435.421 17.1641 435.098 17.6364C434.778 18.1051 434.341 18.4744 433.787 18.7443C433.233 19.0142 432.603 19.1491 431.896 19.1491ZM440.19 19.1918C439.672 19.1918 439.201 19.0941 438.778 18.8988C438.356 18.6999 438.02 18.4141 437.772 18.0412C437.523 17.6648 437.399 17.2102 437.399 16.6776C437.399 16.2088 437.491 15.8288 437.676 15.5376C437.861 15.2429 438.107 15.0121 438.416 14.8452C438.725 14.6783 439.066 14.554 439.439 14.4723C439.815 14.3871 440.194 14.3196 440.574 14.2699C441.071 14.206 441.474 14.158 441.783 14.1261C442.095 14.0906 442.323 14.032 442.465 13.9503C442.61 13.8686 442.683 13.7266 442.683 13.5241V13.4815C442.683 12.956 442.539 12.5476 442.252 12.2564C441.967 11.9652 441.536 11.8196 440.957 11.8196C440.357 11.8196 439.886 11.951 439.546 12.2138C439.205 12.4766 438.965 12.7571 438.826 13.0554L437.633 12.6293C437.846 12.1321 438.13 11.745 438.486 11.468C438.844 11.1875 439.235 10.9922 439.657 10.8821C440.084 10.7685 440.503 10.7116 440.915 10.7116C441.177 10.7116 441.479 10.7436 441.82 10.8075C442.165 10.8679 442.497 10.994 442.816 11.1857C443.139 11.3775 443.407 11.6669 443.62 12.054C443.834 12.4411 443.94 12.9595 443.94 13.6094V19H442.683V17.892H442.619C442.534 18.0696 442.392 18.2596 442.193 18.462C441.994 18.6644 441.729 18.8366 441.399 18.9787C441.069 19.1207 440.666 19.1918 440.19 19.1918ZM440.382 18.0625C440.879 18.0625 441.298 17.9648 441.639 17.7695C441.983 17.5742 442.243 17.3221 442.417 17.0131C442.594 16.7042 442.683 16.3793 442.683 16.0384V14.8878C442.63 14.9517 442.513 15.0103 442.331 15.0636C442.154 15.1133 441.948 15.1577 441.714 15.1967C441.483 15.2322 441.257 15.2642 441.037 15.2926C440.82 15.3175 440.645 15.3388 440.51 15.3565C440.183 15.3991 439.878 15.4684 439.593 15.5643C439.313 15.6566 439.086 15.7969 438.912 15.9851C438.741 16.1697 438.656 16.4219 438.656 16.7415C438.656 17.1783 438.818 17.5085 439.141 17.7322C439.467 17.9524 439.881 18.0625 440.382 18.0625ZM451.156 19V11.9688H448.983C448.493 11.9688 448.108 12.0824 447.827 12.3097C447.547 12.5369 447.406 12.8494 447.406 13.2472C447.406 13.6378 447.532 13.945 447.785 14.1687C448.04 14.3924 448.39 14.5043 448.834 14.5043H451.476V15.6761H448.834C448.28 15.6761 447.802 15.5785 447.401 15.3832C447 15.1879 446.691 14.9091 446.474 14.5469C446.258 14.1811 446.149 13.7479 446.149 13.2472C446.149 12.7429 446.263 12.3097 446.49 11.9474C446.718 11.5852 447.042 11.3065 447.465 11.1112C447.891 10.9158 448.397 10.8182 448.983 10.8182H452.35V19H451.156ZM445.702 19L448.024 14.9304H449.388L447.066 19H445.702ZM454.657 19V10.8182H458.003C458.883 10.8182 459.583 11.017 460.101 11.4148C460.62 11.8125 460.879 12.3381 460.879 12.9915C460.879 13.4886 460.732 13.8739 460.437 14.1474C460.142 14.4173 459.764 14.6001 459.302 14.696C459.604 14.7386 459.897 14.8452 460.181 15.0156C460.469 15.1861 460.707 15.4205 460.895 15.7188C461.083 16.0135 461.177 16.3757 461.177 16.8054C461.177 17.2244 461.071 17.5991 460.858 17.9293C460.645 18.2596 460.339 18.5206 459.941 18.7124C459.544 18.9041 459.068 19 458.514 19H454.657ZM455.851 17.8494H458.514C458.947 17.8494 459.286 17.7464 459.531 17.5405C459.776 17.3345 459.899 17.054 459.899 16.6989C459.899 16.2763 459.776 15.9442 459.531 15.7028C459.286 15.4577 458.947 15.3352 458.514 15.3352H455.851V17.8494ZM455.851 14.2486H458.003C458.34 14.2486 458.629 14.2024 458.871 14.1101C459.112 14.0142 459.297 13.8793 459.425 13.7053C459.556 13.5277 459.622 13.3182 459.622 13.0767C459.622 12.7322 459.478 12.4624 459.19 12.267C458.903 12.0682 458.507 11.9688 458.003 11.9688H455.851V14.2486ZM462.356 19V17.8281H462.654C462.899 17.8281 463.103 17.7802 463.267 17.6843C463.43 17.5849 463.561 17.4126 463.661 17.1676C463.764 16.919 463.842 16.5746 463.895 16.1342C463.952 15.6903 463.993 15.1257 464.018 14.4403L464.167 10.8182H469.621V19H468.364V11.9901H465.36L465.232 14.9091C465.204 15.5803 465.143 16.1715 465.051 16.6829C464.962 17.1907 464.826 17.6168 464.641 17.9613C464.46 18.3058 464.218 18.565 463.917 18.739C463.615 18.913 463.237 19 462.782 19H462.356ZM475.358 19.1705C474.57 19.1705 473.89 18.9964 473.318 18.6484C472.75 18.2969 472.311 17.8068 472.002 17.1783C471.697 16.5462 471.544 15.8111 471.544 14.973C471.544 14.1349 471.697 13.3963 472.002 12.7571C472.311 12.1143 472.741 11.6136 473.292 11.255C473.846 10.8928 474.492 10.7116 475.23 10.7116C475.657 10.7116 476.077 10.7827 476.493 10.9247C476.908 11.0668 477.287 11.2976 477.627 11.6172C477.968 11.9332 478.24 12.3523 478.442 12.8743C478.645 13.3963 478.746 14.0391 478.746 14.8026V15.3352H472.439V14.2486H477.468C477.468 13.7869 477.375 13.375 477.191 13.0128C477.01 12.6506 476.75 12.3647 476.413 12.1552C476.079 11.9457 475.685 11.8409 475.23 11.8409C474.73 11.8409 474.297 11.9652 473.931 12.2138C473.569 12.4588 473.29 12.7784 473.094 13.1726C472.899 13.5668 472.801 13.9893 472.801 14.4403V15.1648C472.801 15.7827 472.908 16.3065 473.121 16.7362C473.338 17.1623 473.638 17.4872 474.021 17.7109C474.405 17.9311 474.85 18.0412 475.358 18.0412C475.689 18.0412 475.987 17.995 476.253 17.9027C476.523 17.8068 476.756 17.6648 476.951 17.4766C477.146 17.2848 477.297 17.0469 477.404 16.7628L478.618 17.1037C478.49 17.5156 478.276 17.8778 477.974 18.1903C477.672 18.4993 477.299 18.7408 476.855 18.9148C476.411 19.0852 475.912 19.1705 475.358 19.1705ZM486.134 14.3338V15.5057H481.617V14.3338H486.134ZM481.915 10.8182V19H480.658V10.8182H481.915ZM487.093 10.8182V19H485.836V10.8182H487.093ZM490.646 17.1463L494.588 10.8182H496.037V19H494.779V12.6719L490.859 19H489.389V10.8182H490.646V17.1463ZM501.769 19.1705C500.981 19.1705 500.301 18.9964 499.729 18.6484C499.161 18.2969 498.723 17.8068 498.414 17.1783C498.108 16.5462 497.956 15.8111 497.956 14.973C497.956 14.1349 498.108 13.3963 498.414 12.7571C498.723 12.1143 499.152 11.6136 499.703 11.255C500.257 10.8928 500.903 10.7116 501.642 10.7116C502.068 10.7116 502.489 10.7827 502.904 10.9247C503.32 11.0668 503.698 11.2976 504.039 11.6172C504.38 11.9332 504.651 12.3523 504.854 12.8743C505.056 13.3963 505.157 14.0391 505.157 14.8026V15.3352H498.85V14.2486H503.879C503.879 13.7869 503.786 13.375 503.602 13.0128C503.421 12.6506 503.161 12.3647 502.824 12.1552C502.49 11.9457 502.096 11.8409 501.642 11.8409C501.141 11.8409 500.708 11.9652 500.342 12.2138C499.98 12.4588 499.701 12.7784 499.506 13.1726C499.31 13.5668 499.213 13.9893 499.213 14.4403V15.1648C499.213 15.7827 499.319 16.3065 499.532 16.7362C499.749 17.1623 500.049 17.4872 500.432 17.7109C500.816 17.9311 501.262 18.0412 501.769 18.0412C502.1 18.0412 502.398 17.995 502.664 17.9027C502.934 17.8068 503.167 17.6648 503.362 17.4766C503.557 17.2848 503.708 17.0469 503.815 16.7628L505.029 17.1037C504.902 17.5156 504.687 17.8778 504.385 18.1903C504.083 18.4993 503.71 18.7408 503.266 18.9148C502.822 19.0852 502.323 19.1705 501.769 19.1705ZM437.716 37V28.8182H444.151V37H442.894V29.9901H438.974V37H437.716ZM446.447 40.0682V28.8182H447.661V30.1179H447.811C447.903 29.9759 448.031 29.7947 448.194 29.5746C448.361 29.3509 448.599 29.152 448.908 28.978C449.22 28.8004 449.643 28.7116 450.176 28.7116C450.865 28.7116 451.472 28.8839 451.997 29.2283C452.523 29.5728 452.933 30.0611 453.228 30.6932C453.523 31.3253 453.67 32.071 453.67 32.9304C453.67 33.7969 453.523 34.5479 453.228 35.1836C452.933 35.8157 452.525 36.3058 452.003 36.6538C451.481 36.9982 450.879 37.1705 450.197 37.1705C449.671 37.1705 449.251 37.0835 448.935 36.9094C448.618 36.7319 448.375 36.5312 448.205 36.3075C448.034 36.0803 447.903 35.892 447.811 35.7429H447.704V40.0682H446.447ZM447.683 32.9091C447.683 33.527 447.773 34.0721 447.954 34.5444C448.136 35.0131 448.4 35.3807 448.748 35.647C449.096 35.9098 449.522 36.0412 450.027 36.0412C450.552 36.0412 450.991 35.9027 451.342 35.6257C451.697 35.3452 451.964 34.9687 452.141 34.4964C452.322 34.0206 452.413 33.4915 452.413 32.9091C452.413 32.3338 452.324 31.8153 452.147 31.3537C451.973 30.8885 451.708 30.521 451.353 30.2511C451.001 29.9776 450.559 29.8409 450.027 29.8409C449.515 29.8409 449.085 29.9705 448.737 30.2298C448.389 30.4854 448.127 30.8441 447.949 31.3058C447.772 31.7638 447.683 32.2983 447.683 32.9091ZM456.845 35.1463L460.786 28.8182H462.235V37H460.978V30.6719L457.058 37H455.588V28.8182H456.845V35.1463ZM470.014 32.3338V33.5057H465.497V32.3338H470.014ZM465.795 28.8182V37H464.538V28.8182H465.795ZM470.972 28.8182V37H469.715V28.8182H470.972ZM478.19 37V29.9688H476.017C475.527 29.9688 475.141 30.0824 474.861 30.3097C474.58 30.5369 474.44 30.8494 474.44 31.2472C474.44 31.6378 474.566 31.945 474.818 32.1687C475.074 32.3924 475.424 32.5043 475.868 32.5043H478.51V33.6761H475.868C475.314 33.6761 474.836 33.5785 474.435 33.3832C474.034 33.1879 473.725 32.9091 473.508 32.5469C473.291 32.1811 473.183 31.7479 473.183 31.2472C473.183 30.7429 473.297 30.3097 473.524 29.9474C473.751 29.5852 474.076 29.3065 474.499 29.1112C474.925 28.9158 475.431 28.8182 476.017 28.8182H479.383V37H478.19ZM472.736 37L475.058 32.9304H476.422L474.099 37H472.736ZM480.578 29.9901V28.8182H487.226V29.9901H484.541V37H483.284V29.9901H480.578ZM491.958 37.1705C491.22 37.1705 490.572 36.9947 490.014 36.6431C489.46 36.2915 489.027 35.7997 488.714 35.1676C488.405 34.5355 488.251 33.7969 488.251 32.9517C488.251 32.0994 488.405 31.3555 488.714 30.7198C489.027 30.0842 489.46 29.5906 490.014 29.239C490.572 28.8874 491.22 28.7116 491.958 28.7116C492.697 28.7116 493.343 28.8874 493.897 29.239C494.455 29.5906 494.888 30.0842 495.197 30.7198C495.509 31.3555 495.666 32.0994 495.666 32.9517C495.666 33.7969 495.509 34.5355 495.197 35.1676C494.888 35.7997 494.455 36.2915 493.897 36.6431C493.343 36.9947 492.697 37.1705 491.958 37.1705ZM491.958 36.0412C492.519 36.0412 492.981 35.8974 493.343 35.6097C493.705 35.3221 493.974 34.9439 494.148 34.4751C494.322 34.0064 494.409 33.4986 494.409 32.9517C494.409 32.4048 494.322 31.8952 494.148 31.4229C493.974 30.9506 493.705 30.5689 493.343 30.2777C492.981 29.9865 492.519 29.8409 491.958 29.8409C491.397 29.8409 490.936 29.9865 490.573 30.2777C490.211 30.5689 489.943 30.9506 489.769 31.4229C489.595 31.8952 489.508 32.4048 489.508 32.9517C489.508 33.4986 489.595 34.0064 489.769 34.4751C489.943 34.9439 490.211 35.3221 490.573 35.6097C490.936 35.8974 491.397 36.0412 491.958 36.0412Z" fill="black"/>
<path d="M534.866 0.5H718C723.247 0.5 727.5 4.75329 727.5 10V22.5V35C727.5 40.2467 723.247 44.5 718 44.5H534.866L547.433 22.7501L547.577 22.5L547.433 22.2499L534.866 0.5Z" fill="white" stroke="black"/>
<circle cx="571.5" cy="22.5" r="16" stroke="black"/>
<path d="M618.496 8.09091V19H617.175V9.26278H611.678V19H610.356V8.09091H618.496ZM620.99 22.0682V10.8182H622.204V12.1179H622.354C622.446 11.9759 622.574 11.7947 622.737 11.5746C622.904 11.3509 623.142 11.152 623.451 10.978C623.763 10.8004 624.186 10.7116 624.719 10.7116C625.408 10.7116 626.015 10.8839 626.54 11.2283C627.066 11.5728 627.476 12.0611 627.771 12.6932C628.066 13.3253 628.213 14.071 628.213 14.9304C628.213 15.7969 628.066 16.5479 627.771 17.1836C627.476 17.8157 627.068 18.3058 626.546 18.6538C626.024 18.9982 625.422 19.1705 624.74 19.1705C624.214 19.1705 623.794 19.0835 623.477 18.9094C623.161 18.7319 622.918 18.5312 622.748 18.3075C622.577 18.0803 622.446 17.892 622.354 17.7429H622.247V22.0682H620.99ZM622.226 14.9091C622.226 15.527 622.316 16.0721 622.497 16.5444C622.678 17.0131 622.943 17.3807 623.291 17.647C623.639 17.9098 624.065 18.0412 624.569 18.0412C625.095 18.0412 625.534 17.9027 625.885 17.6257C626.24 17.3452 626.507 16.9687 626.684 16.4964C626.865 16.0206 626.956 15.4915 626.956 14.9091C626.956 14.3338 626.867 13.8153 626.689 13.3537C626.515 12.8885 626.251 12.521 625.896 12.2511C625.544 11.9776 625.102 11.8409 624.569 11.8409C624.058 11.8409 623.628 11.9705 623.28 12.2298C622.932 12.4854 622.67 12.8441 622.492 13.3058C622.314 13.7638 622.226 14.2983 622.226 14.9091ZM633.454 19.1705C632.716 19.1705 632.068 18.9947 631.51 18.6431C630.956 18.2915 630.523 17.7997 630.21 17.1676C629.902 16.5355 629.747 15.7969 629.747 14.9517C629.747 14.0994 629.902 13.3555 630.21 12.7198C630.523 12.0842 630.956 11.5906 631.51 11.239C632.068 10.8874 632.716 10.7116 633.454 10.7116C634.193 10.7116 634.839 10.8874 635.393 11.239C635.951 11.5906 636.384 12.0842 636.693 12.7198C637.006 13.3555 637.162 14.0994 637.162 14.9517C637.162 15.7969 637.006 16.5355 636.693 17.1676C636.384 17.7997 635.951 18.2915 635.393 18.6431C634.839 18.9947 634.193 19.1705 633.454 19.1705ZM633.454 18.0412C634.015 18.0412 634.477 17.8974 634.839 17.6097C635.202 17.3221 635.47 16.9439 635.644 16.4751C635.818 16.0064 635.905 15.4986 635.905 14.9517C635.905 14.4048 635.818 13.8952 635.644 13.4229C635.47 12.9506 635.202 12.5689 634.839 12.2777C634.477 11.9865 634.015 11.8409 633.454 11.8409C632.893 11.8409 632.432 11.9865 632.069 12.2777C631.707 12.5689 631.439 12.9506 631.265 13.4229C631.091 13.8952 631.004 14.4048 631.004 14.9517C631.004 15.4986 631.091 16.0064 631.265 16.4751C631.439 16.9439 631.707 17.3221 632.069 17.6097C632.432 17.8974 632.893 18.0412 633.454 18.0412ZM639.681 10.8182L641.642 14.1634L643.602 10.8182H645.051L642.409 14.9091L645.051 19H643.602L641.642 15.8253L639.681 19H638.232L640.832 14.9091L638.232 10.8182H639.681ZM649.831 19.1705C649.093 19.1705 648.445 18.9947 647.887 18.6431C647.333 18.2915 646.9 17.7997 646.587 17.1676C646.278 16.5355 646.124 15.7969 646.124 14.9517C646.124 14.0994 646.278 13.3555 646.587 12.7198C646.9 12.0842 647.333 11.5906 647.887 11.239C648.445 10.8874 649.093 10.7116 649.831 10.7116C650.57 10.7116 651.216 10.8874 651.77 11.239C652.328 11.5906 652.761 12.0842 653.07 12.7198C653.383 13.3555 653.539 14.0994 653.539 14.9517C653.539 15.7969 653.383 16.5355 653.07 17.1676C652.761 17.7997 652.328 18.2915 651.77 18.6431C651.216 18.9947 650.57 19.1705 649.831 19.1705ZM649.831 18.0412C650.392 18.0412 650.854 17.8974 651.216 17.6097C651.579 17.3221 651.847 16.9439 652.021 16.4751C652.195 16.0064 652.282 15.4986 652.282 14.9517C652.282 14.4048 652.195 13.8952 652.021 13.4229C651.847 12.9506 651.579 12.5689 651.216 12.2777C650.854 11.9865 650.392 11.8409 649.831 11.8409C649.27 11.8409 648.809 11.9865 648.446 12.2777C648.084 12.5689 647.816 12.9506 647.642 13.4229C647.468 13.8952 647.381 14.4048 647.381 14.9517C647.381 15.4986 647.468 16.0064 647.642 16.4751C647.816 16.9439 648.084 17.3221 648.446 17.6097C648.809 17.8974 649.27 18.0412 649.831 18.0412ZM654.584 21.3438V17.8281H655.266C655.433 17.6541 655.577 17.4659 655.697 17.2635C655.818 17.0611 655.923 16.8214 656.012 16.5444C656.104 16.2638 656.182 15.9229 656.246 15.5217C656.31 15.1168 656.367 14.6286 656.417 14.0568L656.693 10.8182H661.892V17.8281H663.149V21.3438H661.892V19H655.841V21.3438H654.584ZM656.693 17.8281H660.635V11.9901H657.865L657.652 14.0568C657.564 14.9126 657.453 15.6602 657.322 16.2994C657.191 16.9386 656.981 17.4482 656.693 17.8281ZM666.075 17.1463L670.017 10.8182H671.466V19H670.209V12.6719L666.288 19H664.818V10.8182H666.075V17.1463ZM672.655 11.9901V10.8182H679.303V11.9901H676.618V19H675.361V11.9901H672.655ZM611.776 37V28.8182H618.211V37H616.954V29.9901H613.033V37H611.776ZM620.507 40.0682V28.8182H621.721V30.1179H621.87C621.962 29.9759 622.09 29.7947 622.254 29.5746C622.421 29.3509 622.659 29.152 622.967 28.978C623.28 28.8004 623.703 28.7116 624.235 28.7116C624.924 28.7116 625.531 28.8839 626.057 29.2283C626.583 29.5728 626.993 30.0611 627.287 30.6932C627.582 31.3253 627.73 32.071 627.73 32.9304C627.73 33.7969 627.582 34.5479 627.287 35.1836C626.993 35.8157 626.584 36.3058 626.062 36.6538C625.54 36.9982 624.938 37.1705 624.257 37.1705C623.731 37.1705 623.31 37.0835 622.994 36.9094C622.678 36.7319 622.435 36.5312 622.264 36.3075C622.094 36.0803 621.962 35.892 621.87 35.7429H621.764V40.0682H620.507ZM621.742 32.9091C621.742 33.527 621.833 34.0721 622.014 34.5444C622.195 35.0131 622.46 35.3807 622.808 35.647C623.156 35.9098 623.582 36.0412 624.086 36.0412C624.612 36.0412 625.05 35.9027 625.402 35.6257C625.757 35.3452 626.023 34.9687 626.201 34.4964C626.382 34.0206 626.472 33.4915 626.472 32.9091C626.472 32.3338 626.384 31.8153 626.206 31.3537C626.032 30.8885 625.768 30.521 625.412 30.2511C625.061 29.9776 624.619 29.8409 624.086 29.8409C623.575 29.8409 623.145 29.9705 622.797 30.2298C622.449 30.4854 622.186 30.8441 622.009 31.3058C621.831 31.7638 621.742 32.2983 621.742 32.9091ZM632.055 37.1918C631.536 37.1918 631.066 37.0941 630.643 36.8988C630.221 36.6999 629.885 36.4141 629.636 36.0412C629.388 35.6648 629.264 35.2102 629.264 34.6776C629.264 34.2088 629.356 33.8288 629.541 33.5376C629.725 33.2429 629.972 33.0121 630.281 32.8452C630.59 32.6783 630.931 32.554 631.304 32.4723C631.68 32.3871 632.058 32.3196 632.438 32.2699C632.936 32.206 633.339 32.158 633.648 32.1261C633.96 32.0906 634.187 32.032 634.329 31.9503C634.475 31.8686 634.548 31.7266 634.548 31.5241V31.4815C634.548 30.956 634.404 30.5476 634.116 30.2564C633.832 29.9652 633.401 29.8196 632.822 29.8196C632.222 29.8196 631.751 29.951 631.41 30.2138C631.069 30.4766 630.83 30.7571 630.691 31.0554L629.498 30.6293C629.711 30.1321 629.995 29.745 630.35 29.468C630.709 29.1875 631.1 28.9922 631.522 28.8821C631.948 28.7685 632.367 28.7116 632.779 28.7116C633.042 28.7116 633.344 28.7436 633.685 28.8075C634.029 28.8679 634.361 28.994 634.681 29.1857C635.004 29.3775 635.272 29.6669 635.485 30.054C635.698 30.4411 635.805 30.9595 635.805 31.6094V37H634.548V35.892H634.484C634.399 36.0696 634.257 36.2596 634.058 36.462C633.859 36.6644 633.594 36.8366 633.264 36.9787C632.934 37.1207 632.531 37.1918 632.055 37.1918ZM632.247 36.0625C632.744 36.0625 633.163 35.9648 633.504 35.7695C633.848 35.5742 634.107 35.3221 634.281 35.0131C634.459 34.7042 634.548 34.3793 634.548 34.0384V32.8878C634.494 32.9517 634.377 33.0103 634.196 33.0636C634.019 33.1133 633.813 33.1577 633.578 33.1967C633.347 33.2322 633.122 33.2642 632.902 33.2926C632.685 33.3175 632.509 33.3388 632.374 33.3565C632.048 33.3991 631.742 33.4684 631.458 33.5643C631.178 33.6566 630.95 33.7969 630.776 33.9851C630.606 34.1697 630.521 34.4219 630.521 34.7415C630.521 35.1783 630.682 35.5085 631.005 35.7322C631.332 35.9524 631.746 36.0625 632.247 36.0625ZM638.099 37V28.8182H639.356V32.3764H640.187L643.128 28.8182H644.747L641.444 32.7599L644.79 37H643.17L640.486 33.5483H639.356V37H638.099ZM645.687 29.9901V28.8182H652.335V29.9901H649.65V37H648.393V29.9901H645.687ZM655.426 35.1463L659.367 28.8182H660.816V37H659.559V30.6719L655.639 37H654.169V28.8182H655.426V35.1463ZM663.119 37V28.8182H664.376V32.3764H665.207L668.147 28.8182H669.767L666.464 32.7599L669.809 37H668.19L665.505 33.5483H664.376V37H663.119ZM671.985 40.0682C671.772 40.0682 671.582 40.0504 671.415 40.0149C671.248 39.983 671.133 39.951 671.069 39.919L671.389 38.8111C671.694 38.8892 671.964 38.9176 672.198 38.8963C672.433 38.875 672.64 38.7702 672.821 38.582C673.006 38.3974 673.175 38.0973 673.327 37.6818L673.562 37.0426L670.536 28.8182H671.9L674.158 35.3381H674.244L676.502 28.8182H677.866L674.393 38.1932C674.237 38.6158 674.043 38.9656 673.812 39.2425C673.581 39.5231 673.313 39.7308 673.008 39.8658C672.706 40.0007 672.365 40.0682 671.985 40.0682Z" fill="black"/>
</svg>
